<mxfile host="app.diagrams.net" modified="2024-02-12T02:43:02.941Z" agent="Mozilla/5.0 (Windows NT 10.0; Win64; x64) AppleWebKit/537.36 (KHTML, like Gecko) Chrome/121.0.0.0 Safari/537.36 Edg/121.0.0.0" etag="s_Hhl6O9yvqBL3i9oywW" version="23.1.2" type="device">
  <diagram name="Page-1" id="TFFL3Vq8HdQ4fP_KmS7p">
    <mxGraphModel dx="1987" dy="1285" grid="0" gridSize="10" guides="1" tooltips="1" connect="1" arrows="1" fold="1" page="0" pageScale="1" pageWidth="850" pageHeight="1100" math="0" shadow="0">
      <root>
        <mxCell id="0" />
        <mxCell id="1" parent="0" />
        <mxCell id="WcMVCOuq9Kl2TuqO5XtF-2" value="Goal Reached" style="edgeStyle=none;curved=1;rounded=0;orthogonalLoop=1;jettySize=auto;html=1;fontSize=12;startSize=8;endSize=8;" edge="1" parent="1" source="WcMVCOuq9Kl2TuqO5XtF-1" target="WcMVCOuq9Kl2TuqO5XtF-3">
          <mxGeometry relative="1" as="geometry">
            <mxPoint x="204" y="117" as="targetPoint" />
          </mxGeometry>
        </mxCell>
        <mxCell id="WcMVCOuq9Kl2TuqO5XtF-1" value="atGoal = False&lt;br&gt;useAStar = True" style="rounded=0;whiteSpace=wrap;html=1;fontSize=16;" vertex="1" parent="1">
          <mxGeometry x="-100" y="12" width="141" height="79" as="geometry" />
        </mxCell>
        <mxCell id="WcMVCOuq9Kl2TuqO5XtF-3" value="atGoal = True&lt;br&gt;useAStar = True" style="rounded=0;whiteSpace=wrap;html=1;fontSize=16;" vertex="1" parent="1">
          <mxGeometry x="160" y="13" width="120" height="79" as="geometry" />
        </mxCell>
        <mxCell id="WcMVCOuq9Kl2TuqO5XtF-8" value="Make AStar Move" style="edgeStyle=segmentEdgeStyle;endArrow=classic;html=1;curved=0;rounded=0;endSize=8;startSize=8;fontSize=12;exitX=0.25;exitY=0;exitDx=0;exitDy=0;entryX=0.75;entryY=0;entryDx=0;entryDy=0;" edge="1" parent="1" source="WcMVCOuq9Kl2TuqO5XtF-1" target="WcMVCOuq9Kl2TuqO5XtF-1">
          <mxGeometry width="50" height="50" relative="1" as="geometry">
            <mxPoint x="175" y="225" as="sourcePoint" />
            <mxPoint x="-19" y="-63" as="targetPoint" />
            <Array as="points">
              <mxPoint x="-49" y="-20" />
              <mxPoint x="11" y="-20" />
            </Array>
          </mxGeometry>
        </mxCell>
        <mxCell id="WcMVCOuq9Kl2TuqO5XtF-17" value="All Monsters&lt;br&gt;Passed" style="edgeStyle=none;curved=1;rounded=0;orthogonalLoop=1;jettySize=auto;html=1;entryX=0;entryY=0.5;entryDx=0;entryDy=0;fontSize=12;startSize=8;endSize=8;" edge="1" parent="1" source="WcMVCOuq9Kl2TuqO5XtF-16" target="WcMVCOuq9Kl2TuqO5XtF-1">
          <mxGeometry x="0.0015" relative="1" as="geometry">
            <mxPoint as="offset" />
          </mxGeometry>
        </mxCell>
        <mxCell id="WcMVCOuq9Kl2TuqO5XtF-16" value="atGoal = False&lt;br&gt;useAStar = False" style="rounded=0;whiteSpace=wrap;html=1;fontSize=16;" vertex="1" parent="1">
          <mxGeometry x="-348" y="12" width="153" height="80" as="geometry" />
        </mxCell>
        <mxCell id="WcMVCOuq9Kl2TuqO5XtF-21" value="Make Expectimax Move" style="edgeStyle=segmentEdgeStyle;endArrow=classic;html=1;curved=0;rounded=0;endSize=8;startSize=8;fontSize=12;exitX=0.25;exitY=0;exitDx=0;exitDy=0;entryX=0.75;entryY=0;entryDx=0;entryDy=0;" edge="1" parent="1">
          <mxGeometry width="50" height="50" relative="1" as="geometry">
            <mxPoint x="-316" y="13" as="sourcePoint" />
            <mxPoint x="-245" y="13" as="targetPoint" />
            <Array as="points">
              <mxPoint x="-316" y="11" />
              <mxPoint x="-318" y="11" />
              <mxPoint x="-318" y="-17" />
              <mxPoint x="-245" y="-17" />
            </Array>
          </mxGeometry>
        </mxCell>
      </root>
    </mxGraphModel>
  </diagram>
</mxfile>
